<svg xmlns="http://www.w3.org/2000/svg" xmlns:xlink="http://www.w3.org/1999/xlink" width="500" height="296" viewBox="0 0 500 296">
  <defs>
    <clipPath id="clip-path">
      <rect id="Rectangle_4772" data-name="Rectangle 4772" width="500" height="296"/>
    </clipPath>
  </defs>
  <g id="Black" transform="translate(0 0.309)">
    <g id="Group_6891" data-name="Group 6891" transform="translate(0 -0.309)" clip-path="url(#clip-path)">
      <path id="Path_11226" data-name="Path 11226" d="M254.509,37.727c4.868-3.691,9.553-7.454,14.452-10.922C286.995,14.04,307.078,6.2,328.875,2.52A187.276,187.276,0,0,1,366.3.11c20.358.672,40,4.529,58.535,13.2a127.265,127.265,0,0,1,35.046,24.328,119.71,119.71,0,0,1,28.992,43.431,118.1,118.1,0,0,1,7.548,34.2c1.848,27.078-1.425,53.487-11.5,78.811-12.06,30.3-31.416,55.056-58.575,73.559-15.717,10.708-33.134,17.557-51.747,21.49a190.962,190.962,0,0,1-46.118,3.843c-20.052-.68-39.3-4.8-57.325-13.8-1.046-.522-1.552.194-2.3.337-2.14.411-4.26.923-6.4,1.353q-22.929,4.617-45.864,9.207a186.047,186.047,0,0,1-32.517,3.288c-8.444.171-16.9.355-25.336.159-23.9-.554-47.49-3.269-70.291-10.872C72.7,277.39,58.113,269.977,45.677,258.886a136.571,136.571,0,0,1-29.346-37.7A135.177,135.177,0,0,1,.9,170.462c-4.312-42.088,6.835-79.869,33.038-113.07,17.661-22.378,40.88-37.342,67.713-46.9A173.5,173.5,0,0,1,148.207,1.11a220.375,220.375,0,0,1,40.776.91,166.876,166.876,0,0,1,32.5,7.522c8.589,2.808,17.019,6.1,25.495,9.237a2.644,2.644,0,0,1,1.274,1.482c2,5.481,3.929,10.987,5.882,16.485.125.352.27.7.38.981m78.535-22.7a106.108,106.108,0,0,0-19.807,1.848C292.146,20.86,274.152,30.853,258.2,44.813a1.328,1.328,0,0,0-.41,1.8c1.407,3.339,2.756,6.7,4.119,10.059q40.531,99.8,81.089,199.589c2.038,5.008,4.379,9.9,6.792,14.748a45.155,45.155,0,0,0,4.148,6.22,2.382,2.382,0,0,0,1.659.788,101.336,101.336,0,0,0,21.263-1.45c27.659-5.1,51.7-17.2,70.688-37.9,21.789-23.764,33.082-51.683,31.242-84.251a134.65,134.65,0,0,0-7.666-38.617c-8.3-22.874-22.054-42.141-39.846-58.666-15.937-14.8-34.492-25.447-54.728-33.308-13.974-5.428-28.4-8.794-43.507-8.8M157.106,8.037c-5.489.342-10.987.584-16.466,1.046a133.828,133.828,0,0,0-36.13,7.952C75.268,28.055,53.327,47.409,38.986,74.905,27.119,97.657,24.842,121.969,28.765,147.03c2.161,13.812,6.215,27.112,10.943,40.248,8.517,23.662,21.37,44.516,39.989,61.733,14.784,13.67,31.492,24.106,50.856,30.164,4.449,1.392,4.458,1.435,7.116-2.466a75.657,75.657,0,0,0,7.447-14.726q23.156-57.951,46.281-115.916,22.3-55.862,44.621-111.716c.378-.946.371-1.49-.574-2.049-5.577-3.3-10.962-6.953-16.714-9.908-19.291-9.911-39.948-14.25-61.624-14.359m78.2,64.092c-.323.5-.512.77-.673,1.053a99.26,99.26,0,0,0-10.88,28.356c-3.779,17.524-3.042,35.055-.179,52.612.449,2.752,1.922,5.276,1.671,8.173a6.925,6.925,0,0,0,.337,2.471c.7,2.407,1.443,4.8,2.251,7.179a164.682,164.682,0,0,0,9.243,22.577,171.655,171.655,0,0,0,49.718,58.661,131.9,131.9,0,0,0,22.1,13.529c2.132,1.036,4.326,1.946,6.492,2.913-1.031-3.358-2.316-6.416-3.566-9.488q-17.192-42.24-34.362-84.489c-.241-.593,0,0-8.287-19.107a2.368,2.368,0,0,1-.421-.882q-12.94-32.306-25.874-64.614c-2.5-6.245-4.993-12.494-7.571-18.945m-35.071,88.053c-2.733-.393-2.9-.221-2.976,2.043a5.221,5.221,0,0,1-.541,2.066c-.558,1.138-1.4,2.151-1.873,3.316q-19.736,48.743-39.378,97.524a113.89,113.89,0,0,0-4.334,13.107c-.887,3.332,1.228,5.9,4.706,6.362a174.5,174.5,0,0,0,29.96,1.2,198.358,198.358,0,0,0,58.8-11.449c3.626-1.288,7.174-2.79,10.968-4.275-.471-.388-.673-.576-.9-.735A128.732,128.732,0,0,1,199.546,169.9a32.951,32.951,0,0,1,.117-4.359c.132-1.764.369-3.52.569-5.363m-.83-4.328-.215-.111-1.242,3.093,1.457-.092Z" transform="translate(0 2.399)"/>
    </g>
  </g>
</svg>
